HIERARCHY
ROOT joint_Root
{
	OFFSET 0.0 0.0 0.0
	CHANNELS 6 Xposition Yposition Zposition Zrotation Xrotation Yrotation 
	JOINT Hips
	{
		OFFSET 4.5925 91.4895 -427.239
		CHANNELS 6 Xposition Yposition Zposition Zrotation Xrotation Yrotation 
		JOINT Spine
		{
			OFFSET 15.7357 0.0 0.0
			CHANNELS 6 Xposition Yposition Zposition Zrotation Xrotation Yrotation 
			JOINT Chest
			{
				OFFSET 8.98455 -0.406207 0.0
				CHANNELS 6 Xposition Yposition Zposition Zrotation Xrotation Yrotation 
				JOINT Neck
				{
					OFFSET 16.3773 0.0 0.0
					CHANNELS 6 Xposition Yposition Zposition Zrotation Xrotation Yrotation 
					JOINT Head
					{
						OFFSET 6.45672 0.0 0.0
						CHANNELS 6 Xposition Yposition Zposition Zrotation Xrotation Yrotation 
						End Site
						{
							OFFSET 0.0 0.0 0.0
						}
					}
				}
				JOINT Shoulder_L
				{
					OFFSET 12.9942 -0.242716 4.98039
					CHANNELS 6 Xposition Yposition Zposition Zrotation Xrotation Yrotation 
					JOINT UpperArm_L
					{
						OFFSET 5.34809 0.0 0.0
						CHANNELS 6 Xposition Yposition Zposition Zrotation Xrotation Yrotation 
						JOINT LowerArm_L
						{
							OFFSET 24.3286 1.87007e-05 0.0
							CHANNELS 6 Xposition Yposition Zposition Zrotation Xrotation Yrotation 
							JOINT Hand_L
							{
								OFFSET 22.2916 0.0 0.0
								CHANNELS 6 Xposition Yposition Zposition Zrotation Xrotation Yrotation 
								End Site
								{
									OFFSET 0.0 0.0 0.0
								}
							}
						}
					}
				}
				JOINT Shoulder_R
				{
					OFFSET 12.9945 -0.242716 -4.98039
					CHANNELS 6 Xposition Yposition Zposition Zrotation Xrotation Yrotation 
					JOINT UpperArm_R
					{
						OFFSET -5.34813 0.0 0.0
						CHANNELS 6 Xposition Yposition Zposition Zrotation Xrotation Yrotation 
						JOINT LowerArm_R
						{
							OFFSET -24.3289 0.000322201 0.0
							CHANNELS 6 Xposition Yposition Zposition Zrotation Xrotation Yrotation 
							JOINT Hand_R
							{
								OFFSET -22.2915 -0.000108084 0.0
								CHANNELS 6 Xposition Yposition Zposition Zrotation Xrotation Yrotation 
								End Site
								{
									OFFSET 0.0 0.0 0.0
								}
							}
						}
					}
				}
			}
		}
		JOINT UpperLeg_L
		{
			OFFSET -2.19248 -6.46944 0.0
			CHANNELS 6 Xposition Yposition Zposition Zrotation Xrotation Yrotation 
			JOINT LowerLeg_L
			{
				OFFSET 39.0811 0.0 -1.23785e-05
				CHANNELS 6 Xposition Yposition Zposition Zrotation Xrotation Yrotation 
				JOINT Foot_L
				{
					OFFSET 40.9854 0.0 -1.26872e-05
					CHANNELS 6 Xposition Yposition Zposition Zrotation Xrotation Yrotation 
					JOINT Toes_L
					{
						OFFSET 11.7543 0.0 0.0
						CHANNELS 6 Xposition Yposition Zposition Zrotation Xrotation Yrotation 
						End Site
						{
							OFFSET 0.0 0.0 0.0
						}
					}
				}
			}
		}
		JOINT UpperLeg_R
		{
			OFFSET -2.19251 6.46944 0.0
			CHANNELS 6 Xposition Yposition Zposition Zrotation Xrotation Yrotation 
			JOINT LowerLeg_R
			{
				OFFSET -39.0811 -0.00228153 -0.0401928
				CHANNELS 6 Xposition Yposition Zposition Zrotation Xrotation Yrotation 
				JOINT Foot_R
				{
					OFFSET -40.9854 0.0 0.0
					CHANNELS 6 Xposition Yposition Zposition Zrotation Xrotation Yrotation 
					JOINT Toes_R
					{
						OFFSET -11.7543 0.0 0.0
						CHANNELS 6 Xposition Yposition Zposition Zrotation Xrotation Yrotation 
						End Site
						{
							OFFSET 0.0 0.0 0.0
						}
					}
				}
			}
		}
	}
}
MOTION
Frames:	5
Frame Time:	0.0333333
0.000000 0.000000 0.000000 0.000000 0.000000 -0.000000 -1.660450 90.507500 4.273980 89.762700 -3.221080 7.918580 15.735700 0.000005 -0.000001 87.736600 83.497500 -88.066000 8.984550 -0.406207 -0.000000 5.227660 -0.505225 -0.635117 16.377300 -0.000001 -0.000001 5.085460 -3.758270 0.273991 6.456720 -0.000001 -0.000000 -4.940220 -3.418740 -5.658370 12.994200 -0.242716 4.980390 -91.233200 4.782420 -75.522200 5.348090 -0.000007 -0.000001 -63.882200 37.084600 -15.738800 24.328600 0.000019 0.000005 7.592530 21.458100 -20.020400 22.291600 -0.000001 0.000005 6.725830 5.244470 1.578600 12.994500 -0.242716 -4.980390 88.930200 8.923780 -83.135500 -5.348130 -0.000001 -0.000004 -67.011900 32.510300 -8.720990 -24.328900 0.000322 -0.000009 2.151800 5.760530 -20.532300 -22.291500 -0.000108 -0.000004 10.810900 5.371330 -2.027760 -2.192480 -6.469440 -0.000000 -173.957000 -13.087000 1.780850 39.081100 -0.000007 -0.000012 -0.227940 0.404802 29.383800 40.985400 -0.000006 -0.000013 -1.248960 4.333420 -72.629600 11.754300 -0.000000 0.000003 -0.000174 -0.001648 -16.639900 -2.192510 6.469440 -0.000001 173.336000 22.125100 -176.450000 -39.081100 -0.002282 -0.040193 -0.190433 0.351726 28.847000 -40.985400 0.000008 0.000006 4.196300 13.041500 -73.976900 -11.754300 -0.000006 -0.000006 -0.001917 -0.027674 -17.698400
0.000000 0.000000 0.000000 0.000000 0.000000 -0.000000 -1.587620 90.504700 4.261660 89.767900 -3.215940 7.960340 15.735700 0.000005 -0.000001 87.361900 83.433800 -87.701200 8.984550 -0.406207 -0.000000 5.351020 -0.595942 -0.649870 16.377300 -0.000001 -0.000001 5.339710 -3.657110 0.264403 6.456720 -0.000001 -0.000000 -4.193490 -3.232000 -5.869990 12.994200 -0.242716 4.980390 -91.282300 4.890990 -75.290200 5.348090 -0.000007 -0.000001 -63.628600 34.486700 -14.919500 24.328600 0.000019 0.000005 7.919200 22.024700 -20.351300 22.291600 -0.000001 0.000005 6.459210 5.245910 1.540500 12.994500 -0.242716 -4.980390 88.844900 9.079300 -82.718300 -5.348130 -0.000001 -0.000004 -65.675800 29.695400 -8.507090 -24.328900 0.000322 -0.000009 2.295750 5.940980 -21.181200 -22.291500 -0.000108 -0.000004 10.572900 5.368090 -1.927940 -2.192480 -6.469440 -0.000000 -174.023000 -13.043400 1.785450 39.081100 -0.000007 -0.000012 -0.226989 0.402449 29.424300 40.985400 -0.000006 -0.000013 -1.205280 4.275110 -72.649900 11.754300 -0.000000 0.000003 -0.000175 -0.001655 -16.640200 -2.192510 6.469440 -0.000001 173.223000 22.173600 -176.416000 -39.081100 -0.002282 -0.040193 -0.199341 0.367918 28.845700 -40.985400 0.000008 0.000006 3.938870 13.190800 -73.884800 -11.754300 -0.000006 -0.000006 -0.001722 -0.025180 -17.597000
0.000000 0.000000 0.000000 0.000000 0.000000 -0.000000 -1.510710 90.502900 4.234610 89.766200 -3.290920 8.053560 15.735700 0.000005 -0.000001 87.021500 83.344700 -87.369600 8.984550 -0.406207 -0.000000 5.524860 -0.683204 -0.662443 16.377300 -0.000001 -0.000001 5.630310 -3.519670 0.330603 6.456720 -0.000001 -0.000000 -3.459400 -2.960920 -6.163840 12.994200 -0.242716 4.980390 -91.384200 5.097390 -74.786400 5.348090 -0.000007 -0.000001 -63.225000 30.757500 -14.084800 24.328600 0.000019 0.000005 8.563810 22.645600 -21.360800 22.291600 -0.000001 0.000005 5.678410 5.253060 1.352010 12.994500 -0.242716 -4.980390 88.745100 9.141820 -82.149500 -5.348130 -0.000001 -0.000004 -64.109300 26.159600 -8.659220 -24.328900 0.000322 -0.000009 2.334000 5.865350 -21.753600 -22.291500 -0.000108 -0.000004 10.456200 5.370660 -2.006870 -2.192480 -6.469440 -0.000000 -174.034000 -13.152600 1.861910 39.081100 -0.000007 -0.000012 -0.225977 0.400088 29.458900 40.985400 -0.000006 -0.000013 -1.145130 4.286340 -72.667100 11.754300 -0.000000 0.000003 -0.000174 -0.001650 -16.640000 -2.192510 6.469440 -0.000001 173.188000 22.040000 -176.383000 -39.081100 -0.002282 -0.040193 -0.195234 0.359507 28.910000 -40.985400 0.000008 0.000006 4.082450 13.094300 -73.929500 -11.754300 -0.000006 -0.000006 -0.002037 -0.029184 -17.759800
0.000000 0.000000 0.000000 0.000000 0.000000 -0.000000 -1.430810 90.491500 4.210070 89.737000 -3.412800 8.131140 15.735700 0.000005 -0.000001 86.838500 83.289300 -87.180100 8.984550 -0.406207 -0.000000 5.633290 -0.732048 -0.646396 16.377300 -0.000001 -0.000001 6.198620 -3.366310 0.356937 6.456720 -0.000001 -0.000000 -2.767980 -2.785240 -6.425910 12.994200 -0.242716 4.980390 -91.506600 5.346250 -74.237300 5.348090 -0.000007 -0.000001 -62.354500 26.609700 -13.477300 24.328600 0.000019 0.000005 9.226380 23.030200 -22.548500 22.291600 -0.000001 0.000005 4.908960 5.254790 1.305640 12.994500 -0.242716 -4.980390 88.664600 9.067640 -81.586200 -5.348130 -0.000001 -0.000004 -62.375000 22.036400 -9.016090 -24.328900 0.000322 -0.000009 2.295360 5.627770 -22.241100 -22.291500 -0.000108 -0.000004 10.525600 5.371340 -2.027950 -2.192480 -6.469440 -0.000000 -174.036000 -13.236500 1.897670 39.081100 -0.000007 -0.000012 -0.226143 0.398757 29.558800 40.985400 -0.000006 -0.000013 -1.098520 4.224440 -72.725600 11.754300 -0.000000 0.000003 -0.000166 -0.001582 -16.637600 -2.192510 6.469440 -0.000001 173.155000 21.883500 -176.383000 -39.081100 -0.002282 -0.040193 -0.199685 0.366651 28.970500 -40.985400 0.000008 0.000006 3.910690 13.145800 -73.873500 -11.754300 -0.000006 -0.000006 -0.001846 -0.026773 -17.661800
0.000000 0.000000 0.000000 0.000000 0.000000 -0.000000 -1.349870 90.487200 4.195850 89.736500 -3.583240 8.278230 15.735700 0.000005 -0.000001 87.012300 83.241800 -87.369300 8.984550 -0.406207 -0.000000 5.730340 -0.696423 -0.678503 16.377300 -0.000001 -0.000001 6.931080 -3.290810 0.432703 6.456720 -0.000001 -0.000000 -2.035270 -2.744190 -6.679500 12.994200 -0.242716 4.980390 -91.611800 5.569480 -73.832100 5.348090 -0.000007 -0.000001 -60.950100 22.310100 -13.117300 24.328600 0.000019 0.000005 9.710350 22.968200 -23.678100 22.291600 -0.000001 0.000005 4.470950 5.264940 1.034310 12.994500 -0.242716 -4.980390 88.600300 8.997860 -81.120100 -5.348130 -0.000001 -0.000004 -60.285400 17.804400 -9.457330 -24.328900 0.000322 -0.000009 2.169930 5.156140 -22.871800 -22.291500 -0.000108 -0.000004 10.734200 5.367280 -1.902720 -2.192480 -6.469440 -0.000000 -174.057000 -13.319100 2.057400 39.081100 -0.000007 -0.000012 -0.225090 0.396512 29.582900 40.985400 -0.000006 -0.000013 -1.066180 4.113950 -72.761800 11.754300 -0.000000 0.000003 -0.000168 -0.001598 -16.638100 -2.192510 6.469440 -0.000001 173.066000 21.802300 -176.297000 -39.081100 -0.002282 -0.040193 -0.198546 0.363582 29.038000 -40.985400 0.000008 0.000006 3.969970 13.187500 -73.887600 -11.754300 -0.000006 -0.000006 -0.001845 -0.026760 -17.661200
